<svg class="w-auto h-16 stroke-current stroke-1" fill="none" viewBox="0 0 78 76" xmlns="http://www.w3.org/2000/svg">
    <path d="M25.781 61.188c0-.313-.312-.626-.781-.626-.469 0-.781.313-.781.626 0 .312.312.624.781.468.469 0 .781-.156.781-.468zm-4.843-.782c0 .313.312.782.78.782.313.156.782 0 .938-.313 0-.313-.156-.625-.625-.781-.468-.157-.937 0-1.093.312zm7.03-.156c-.468 0-.78.313-.78.781 0 .313.468.469.937.313.469-.157.781-.313.625-.625 0-.313-.469-.625-.781-.469zm10.157-60C16.562.25 0 16.813 0 38.375c0 17.344 10.781 32.188 26.406 37.5 2.032.313 2.657-.938 2.657-1.875v-9.688s-10.938 2.344-13.282-4.687c0 0-1.719-4.531-4.219-5.625 0 0-3.593-2.5.157-2.5 0 0 3.906.313 6.094 4.063 3.437 6.093 9.062 4.374 11.406 3.28.312-2.5 1.25-4.218 2.5-5.312-8.75-.937-17.657-2.187-17.657-17.187 0-4.375 1.25-6.407 3.75-9.219-.468-1.094-1.718-5.156.47-10.625 3.124-.938 10.78 4.219 10.78 4.219 3.125-.938 6.407-1.25 9.688-1.25 3.438 0 6.719.312 9.844 1.25 0 0 7.5-5.313 10.781-4.219 2.188 5.469.781 9.531.469 10.625 2.5 2.813 4.062 4.844 4.062 9.219 0 15-9.218 16.25-17.968 17.187 1.406 1.25 2.656 3.594 2.656 7.344 0 5.156-.157 11.719-.157 12.969 0 1.094.782 2.344 2.813 1.875 15.625-5.156 26.25-20 26.25-37.344C77.5 16.812 59.844.25 38.125.25zM15.156 54.156c-.312.157-.156.625 0 .938.313.156.625.312.938.156.156-.156.156-.625-.157-.938-.312-.156-.624-.312-.78-.156zm-1.719-1.25c-.156.313 0 .469.313.625.313.157.625.157.781-.156 0-.156-.156-.313-.469-.469-.312-.156-.468-.156-.624 0zm5 5.625c-.156.157-.156.625.313.938.313.312.781.468.938.156.156-.156.156-.625-.157-.938-.312-.312-.781-.468-1.093-.156zm-1.718-2.343c-.313.156-.313.624 0 .937.312.313.625.469.937.313.157-.157.157-.626 0-.938-.312-.313-.625-.469-.937-.313z"/>
</svg>
