<svg class="w-auto h-16 stroke-current stroke-1" fill="none" viewBox="0 0 70 70" xmlns="http://www.w3.org/2000/svg">
    <path d="M65 0H4.844C2.187 0 0 2.344 0 5.156V65c0 2.813 2.188 5 4.844 5H65c2.656 0 5-2.188 5-5V5.156C70 2.344 67.656 0 65 0zM21.094 60H10.78V26.719h10.313V60zm-5.157-37.969c-3.437 0-6.093-2.656-6.093-5.937C9.844 12.812 12.5 10 15.938 10c3.28 0 5.937 2.813 5.937 6.094a5.935 5.935 0 01-5.938 5.937zM60 60H49.531V43.75c0-3.75 0-8.75-5.312-8.75-5.469 0-6.25 4.219-6.25 8.594V60H27.656V26.719H37.5v4.531h.156c1.407-2.656 4.844-5.469 9.844-5.469 10.469 0 12.5 7.032 12.5 15.938V60z"/>
</svg>
